<svg  viewBox="0 0 90 68" fill="none" xmlns="http://www.w3.org/2000/svg">
<path opacity="0.2" d="M77.2634 27.4318V61.8181C77.2634 62.6379 76.9378 63.4241 76.3581 64.0037C75.7784 64.5834 74.9923 64.909 74.1725 64.909H52.5361C53.3559 64.909 54.1421 64.5834 54.7217 64.0037C55.3014 63.4241 55.627 62.6379 55.627 61.8181V27.4318C58.5464 26.6843 61.0922 24.8964 62.7861 22.404C64.4799 19.9117 65.2052 16.8865 64.8256 13.897C64.446 10.9075 62.9876 8.15958 60.7246 6.16968C58.4615 4.17978 55.5496 3.08491 52.5361 3.09084H74.1725C77.186 3.08491 80.0979 4.17978 82.3609 6.16968C84.624 8.15958 86.0824 10.9075 86.462 13.897C86.8416 16.8865 86.1163 19.9117 84.4224 22.404C82.7286 24.8964 80.1827 26.6843 77.2634 27.4318Z" fill="#E09100"/>
<path d="M89.627 15.4545C89.627 11.3557 87.9988 7.42482 85.1005 4.52653C82.2022 1.62824 78.2713 0 74.1725 0H15.4452C11.8963 0.00215252 8.45636 1.22562 5.70315 3.46485C2.94994 5.70408 1.05126 8.82264 0.326102 12.2966C-0.399058 15.7706 0.0934803 19.3883 1.72097 22.5419C3.34846 25.6956 6.01174 28.1931 9.26337 29.6148V61.8182C9.26337 63.4577 9.91467 65.0301 11.074 66.1894C12.2333 67.3487 13.8057 68 15.4452 68H74.1725C75.812 68 77.3844 67.3487 78.5437 66.1894C79.703 65.0301 80.3543 63.4577 80.3543 61.8182V29.6148C83.1079 28.4098 85.4511 26.4291 87.0978 23.9145C88.7444 21.3999 89.6233 18.4603 89.627 15.4545ZM15.4452 30.9091C16.265 30.9091 17.0511 30.5834 17.6308 30.0038C18.2105 29.4241 18.5361 28.6379 18.5361 27.8182C18.5361 26.9984 18.2105 26.2122 17.6308 25.6326C17.0511 25.0529 16.265 24.7273 15.4452 24.7273C12.9859 24.7273 10.6274 23.7503 8.88838 22.0114C7.14941 20.2724 6.17247 17.9138 6.17247 15.4545C6.17247 12.9953 7.14941 10.6367 8.88838 8.89774C10.6274 7.15876 12.9859 6.18182 15.4452 6.18182H52.5361C54.9954 6.18182 57.3539 7.15876 59.0929 8.89774C60.8319 10.6367 61.8088 12.9953 61.8088 15.4545C61.8088 17.9138 60.8319 20.2724 59.0929 22.0114C57.3539 23.7503 54.9954 24.7273 52.5361 24.7273C51.7163 24.7273 50.9302 25.0529 50.3505 25.6326C49.7708 26.2122 49.4452 26.9984 49.4452 27.8182C49.4452 28.6379 49.7708 29.4241 50.3505 30.0038C50.9302 30.5834 51.7163 30.9091 52.5361 30.9091V61.8182H15.4452V30.9091ZM74.1725 24.7273C73.3527 24.7273 72.5665 25.0529 71.9869 25.6326C71.4072 26.2122 71.0816 26.9984 71.0816 27.8182C71.0816 28.6379 71.4072 29.4241 71.9869 30.0038C72.5665 30.5834 73.3527 30.9091 74.1725 30.9091V61.8182H58.7179V29.6148C60.8543 28.682 62.7519 27.278 64.2688 25.5079C65.7857 23.7379 66.8825 21.6476 67.4771 19.3936C68.0717 17.1396 68.1487 14.7803 67.7024 12.4924C67.2561 10.2044 66.2979 8.04705 64.8997 6.18182H74.1725C76.6317 6.18182 78.9903 7.15876 80.7293 8.89774C82.4682 10.6367 83.4452 12.9953 83.4452 15.4545C83.4452 17.9138 82.4682 20.2724 80.7293 22.0114C78.9903 23.7503 76.6317 24.7273 74.1725 24.7273Z" fill="#E09100"/>
</svg>
