<svg  viewBox="0 0 83 82" fill="none" xmlns="http://www.w3.org/2000/svg">
<path d="M45.8783 12.0984L45.8095 11.8866L46.1588 12.3377C46.4586 12.6732 46.7061 12.599 46.9179 12.3377C46.9179 12.3377 48.7689 10.2117 47.3194 7.73637C46.5218 6.09717 43.3755 2.1972 41.7198 0.976053C38.7274 -0.924426 36.7967 0.536 36.7967 0.536C36.5574 0.714771 36.3814 0.976053 36.5574 1.21808L37.0249 1.69939C31.3785 2.82978 30.5479 7.22755 30.1794 9.17479L30.1189 9.49658L29.3598 14.7772C29.1177 16.6199 30.1189 17.6183 31.8791 17.6183H37.6218C39.624 17.6458 43.7935 17.6981 45.8783 12.0984Z" fill="#E09100"/>
<path d="M27.396 9.10614L26.7827 13.3746L7.34338 31.3563L7.26087 31.4278C6.5647 32.0369 6.0427 32.8199 5.74819 33.6968C5.63179 34.0363 5.54888 34.3864 5.50066 34.742V36.1446C6.246 36.2051 7.10685 36.1446 8.04472 35.9356L69.5531 18.2895C69.7577 18.2307 69.9732 18.2203 70.1825 18.259C70.3918 18.2976 70.5893 18.3844 70.7594 18.5123C70.9295 18.6403 71.0676 18.806 71.1628 18.9965C71.2579 19.1869 71.3076 19.3968 71.3078 19.6097V32.9378C71.3083 33.2327 71.2139 33.52 71.0386 33.7572C70.8633 33.9945 70.6163 34.169 70.3342 34.2552C58.5628 37.8031 11.7659 51.904 10.6163 52.2148C9.31537 52.5724 6.43577 53.1114 5.50066 52.9904V61.6127C6.33951 61.7282 7.21137 61.6952 8.04472 61.4724L69.5504 43.664C69.7551 43.6048 69.9709 43.5939 70.1806 43.6324C70.3903 43.6708 70.5881 43.7575 70.7586 43.8855C70.929 44.0135 71.0674 44.1794 71.1627 44.3701C71.258 44.5608 71.3077 44.771 71.3078 44.9842V57.7787L73.3816 57.1847L73.4008 57.1792L73.5163 57.1407C73.63 57.104 73.7895 57.0462 73.9949 56.9674C74.4973 56.7706 74.9845 56.5371 75.4526 56.2688C76.6957 55.5262 76.8085 55.0229 76.8085 54.9597V19.1393C76.8085 18.5398 76.561 17.4781 75.9091 16.4523C75.2986 15.4897 74.4322 14.7113 73.2963 14.3345L50.5868 9.00987C50.4869 8.10377 50.2003 7.22819 49.7452 6.43831C49.1869 5.33543 48.0868 3.8255 47.0252 2.52734L74.6605 9.00437L74.8475 9.05938C77.5043 9.88448 79.3718 11.6447 80.5517 13.5039C81.7068 15.3191 82.3091 17.3929 82.3091 19.1393V54.9597C82.3091 58.205 79.7156 60.1303 78.2579 60.9966C77.2367 61.5969 76.1507 62.0794 75.0208 62.4351L74.9493 62.4571L74.9245 62.4626L74.9163 62.4653C74.9163 62.4653 74.5147 62.5808 74.9108 62.4653L7.78069 81.7341L7.66242 81.7644C5.70144 82.2319 3.47367 82.1082 1.83172 80.4305C0.360293 78.9288 0 76.7863 0 74.8748V34.6237L0.00275046 34.4752V34.4339L0.0110015 34.3734C0.0248615 34.1278 0.0551832 33.8834 0.101762 33.6418C0.178772 33.1963 0.313538 32.594 0.550066 31.9036C1.15732 30.1182 2.22456 28.5245 3.64419 27.2831L29.4863 3.3827L29.313 3.63848C28.0589 5.58021 27.6766 7.6072 27.4896 8.60007L27.4786 8.66608L27.396 9.10614Z" fill="#E09100"/>
</svg>
