<svg width="49" height="49" viewBox="0 0 49 49" fill="none" xmlns="http://www.w3.org/2000/svg">
<path fill-rule="evenodd" clip-rule="evenodd" d="M19.3958 39.8125C19.9373 39.8125 20.4566 39.5974 20.8395 39.2146C21.2224 38.8317 21.4375 38.3124 21.4375 37.7709C21.4375 37.2294 21.2224 36.7101 20.8395 36.3272C20.4566 35.9443 19.9373 35.7292 19.3958 35.7292C18.8543 35.7292 18.335 35.9443 17.9522 36.3272C17.5693 36.7101 17.3542 37.2294 17.3542 37.7709C17.3542 38.3124 17.5693 38.8317 17.9522 39.2146C18.335 39.5974 18.8543 39.8125 19.3958 39.8125ZM19.3958 41.8542C20.4788 41.8542 21.5174 41.424 22.2832 40.6582C23.049 39.8925 23.4792 38.8538 23.4792 37.7709C23.4792 36.6879 23.049 35.6493 22.2832 34.8835C21.5174 34.1177 20.4788 33.6875 19.3958 33.6875C18.3129 33.6875 17.2743 34.1177 16.5085 34.8835C15.7427 35.6493 15.3125 36.6879 15.3125 37.7709C15.3125 38.8538 15.7427 39.8925 16.5085 40.6582C17.2743 41.424 18.3129 41.8542 19.3958 41.8542ZM33.6875 39.8125C34.229 39.8125 34.7483 39.5974 35.1312 39.2146C35.5141 38.8317 35.7292 38.3124 35.7292 37.7709C35.7292 37.2294 35.5141 36.7101 35.1312 36.3272C34.7483 35.9443 34.229 35.7292 33.6875 35.7292C33.146 35.7292 32.6267 35.9443 32.2438 36.3272C31.8609 36.7101 31.6458 37.2294 31.6458 37.7709C31.6458 38.3124 31.8609 38.8317 32.2438 39.2146C32.6267 39.5974 33.146 39.8125 33.6875 39.8125ZM33.6875 41.8542C34.7705 41.8542 35.8091 41.424 36.5748 40.6582C37.3406 39.8925 37.7708 38.8538 37.7708 37.7709C37.7708 36.6879 37.3406 35.6493 36.5748 34.8835C35.8091 34.1177 34.7705 33.6875 33.6875 33.6875C32.6045 33.6875 31.5659 34.1177 30.8001 34.8835C30.0344 35.6493 29.6042 36.6879 29.6042 37.7709C29.6042 38.8538 30.0344 39.8925 30.8001 40.6582C31.5659 41.424 32.6045 41.8542 33.6875 41.8542ZM6.125 8.16671C6.125 7.89597 6.23255 7.63631 6.424 7.44487C6.61544 7.25343 6.87509 7.14587 7.14583 7.14587H11.2292C11.4455 7.14602 11.6563 7.21492 11.831 7.34262C12.0056 7.47033 12.1352 7.65023 12.201 7.85637L19.1304 29.6042H34.7083C34.9791 29.6042 35.2387 29.7118 35.4302 29.9032C35.6216 30.0946 35.7292 30.3543 35.7292 30.625C35.7292 30.8958 35.6216 31.1554 35.4302 31.3469C35.2387 31.5383 34.9791 31.6459 34.7083 31.6459H18.3832C18.1668 31.6457 17.956 31.5768 17.7814 31.4491C17.6067 31.3214 17.4771 31.1415 17.4113 30.9354L10.484 9.18754H7.14583C6.87509 9.18754 6.61544 9.07999 6.424 8.88855C6.23255 8.6971 6.125 8.43745 6.125 8.16671Z" />
<path d="M17.3542 26.5417L12.25 12.25H39.4797C39.6375 12.2503 39.7931 12.2871 39.9342 12.3577C40.0754 12.4282 40.1983 12.5305 40.2932 12.6565C40.3882 12.7825 40.4526 12.9288 40.4815 13.084C40.5104 13.2391 40.5029 13.3988 40.4597 13.5505L36.9623 25.8005C36.9015 26.0141 36.7727 26.2019 36.5955 26.3357C36.4183 26.4694 36.2023 26.5417 35.9803 26.5417H17.3542Z" />
</svg>
