<svg  viewBox="0 0 84 78" fill="none" xmlns="http://www.w3.org/2000/svg">
<path d="M21.375 15.5625V3.8125C21.375 3.03343 21.6845 2.28626 22.2354 1.73537C22.7863 1.18449 23.5334 0.875 24.3125 0.875C25.0916 0.875 25.8387 1.18449 26.3896 1.73537C26.9405 2.28626 27.25 3.03343 27.25 3.8125V15.5625C27.25 16.3416 26.9405 17.0887 26.3896 17.6396C25.8387 18.1905 25.0916 18.5 24.3125 18.5C23.5334 18.5 22.7863 18.1905 22.2354 17.6396C21.6845 17.0887 21.375 16.3416 21.375 15.5625ZM36.0625 18.5C36.8416 18.5 37.5887 18.1905 38.1396 17.6396C38.6905 17.0887 39 16.3416 39 15.5625V3.8125C39 3.03343 38.6905 2.28626 38.1396 1.73537C37.5887 1.18449 36.8416 0.875 36.0625 0.875C35.2834 0.875 34.5363 1.18449 33.9854 1.73537C33.4345 2.28626 33.125 3.03343 33.125 3.8125V15.5625C33.125 16.3416 33.4345 17.0887 33.9854 17.6396C34.5363 18.1905 35.2834 18.5 36.0625 18.5ZM47.8125 18.5C48.5916 18.5 49.3387 18.1905 49.8896 17.6396C50.4405 17.0887 50.75 16.3416 50.75 15.5625V3.8125C50.75 3.03343 50.4405 2.28626 49.8896 1.73537C49.3387 1.18449 48.5916 0.875 47.8125 0.875C47.0334 0.875 46.2863 1.18449 45.7354 1.73537C45.1845 2.28626 44.875 3.03343 44.875 3.8125V15.5625C44.875 16.3416 45.1845 17.0887 45.7354 17.6396C46.2863 18.1905 47.0334 18.5 47.8125 18.5ZM83.0625 39.0625V42C83.0613 45.7363 81.6363 49.3317 79.0774 52.0543C76.5186 54.7768 73.0184 56.4219 69.2893 56.6545C67.2854 62.3221 63.8739 67.3875 59.3752 71.375H68.375C69.1541 71.375 69.9012 71.6845 70.4521 72.2354C71.003 72.7863 71.3125 73.5334 71.3125 74.3125C71.3125 75.0916 71.003 75.8387 70.4521 76.3896C69.9012 76.9405 69.1541 77.25 68.375 77.25H3.75C2.97093 77.25 2.22376 76.9405 1.67287 76.3896C1.12199 75.8387 0.8125 75.0916 0.8125 74.3125C0.8125 73.5334 1.12199 72.7863 1.67287 72.2354C2.22376 71.6845 2.97093 71.375 3.75 71.375H12.7608C9.0129 68.0638 6.01002 63.9953 3.9504 59.4381C1.89078 54.8808 0.821279 49.9385 0.8125 44.9375V27.3125C0.8125 26.5334 1.12199 25.7863 1.67287 25.2354C2.22376 24.6845 2.97093 24.375 3.75 24.375H68.375C72.2704 24.375 76.0062 25.9224 78.7606 28.6769C81.5151 31.4313 83.0625 35.1671 83.0625 39.0625ZM65.4375 30.25H6.6875V44.9375C6.69883 50.4529 8.2575 55.8546 11.1863 60.5282C14.1151 65.2018 18.2965 68.9598 23.255 71.375H48.87C53.8285 68.9598 58.0099 65.2018 60.9387 60.5282C63.8675 55.8546 65.4262 50.4529 65.4375 44.9375V30.25ZM77.1875 39.0625C77.1869 37.2406 76.6217 35.4636 75.5696 33.9762C74.5175 32.4888 73.0302 31.364 71.3125 30.7567V44.9375C71.31 46.7821 71.1626 48.6237 70.8719 50.4453C72.6945 49.9068 74.2942 48.7936 75.4324 47.2716C76.5705 45.7496 77.1862 43.9005 77.1875 42V39.0625Z" fill="#E09100"/>
</svg>
