<svg  viewBox="0 0 80 82" fill="none" xmlns="http://www.w3.org/2000/svg">
<path d="M40 0C42.6456 0 45.1827 1.05357 47.0534 2.92893C48.9241 4.8043 49.9751 7.34784 49.9751 10C49.9751 12.6522 48.9241 15.1957 47.0534 17.0711C45.1827 18.9464 42.6456 20 40 20C37.3544 20 34.8173 18.9464 32.9466 17.0711C31.0759 15.1957 30.0249 12.6522 30.0249 10C30.0249 7.34784 31.0759 4.8043 32.9466 2.92893C34.8173 1.05357 37.3544 0 40 0ZM55.4414 14C63.9401 14 71.9202 22 71.9202 30C82.6933 30 82.6933 46 71.9202 46H8.0798C-2.69327 46 -2.69327 30 8.0798 30C8.0798 22 16.0599 14 24.5586 14C26.3142 20.92 32.5786 26 40 26C47.4214 26 53.6858 20.92 55.4414 14ZM12.0698 54H24.0399L28.0299 82H20.0499L12.0698 54ZM32.0199 54H47.98L43.99 82H36.01L32.0199 54ZM55.9601 54H67.9302L59.9501 82H51.9701L55.9601 54Z" fill="#E09100"/>
</svg>
