<svg  viewBox="0 0 70 82" fill="none" xmlns="http://www.w3.org/2000/svg">
<path d="M35 0C27.454 0 21.028 4.72525 18.592 11.3194C11.872 13.694 7 19.9533 7 27.3333C7 27.5486 6.986 27.7604 7 27.9757C2.954 29.4004 0 33.1656 0 37.5833C0 43.2038 4.7425 47.8333 10.5 47.8333H11.8125L26.908 76.875C26.9325 76.9297 26.9885 76.9297 27.013 76.9809C28.497 80.0115 31.5595 82 35 82C38.4405 82 41.51 80.0115 42.9835 76.9809H43.0955C43.106 76.9536 43.0815 76.9023 43.0955 76.875L58.1875 47.8333H59.5C65.2575 47.8333 70 43.2038 70 37.5833C70 33.0973 66.9235 29.3492 62.7795 27.9723C62.2864 25.1454 61.0781 22.4836 59.264 20.2282C57.4499 17.9729 55.0876 16.1954 52.3915 15.0572C51.338 6.61467 43.9145 0 35 0ZM35 6.83333C39.62 6.83333 43.533 9.66233 44.954 13.6667C36.778 13.9195 29.9285 19.7381 28.329 27.3333H14C14 21.689 18.718 17.0833 24.5 17.0833C25.4695 17.0833 26.4425 17.2713 27.3455 17.5104C28.8855 15.5083 30.681 13.6803 32.8125 12.2795C31.0041 11.3477 29.0424 10.7325 27.0165 10.4618C27.9925 9.32166 29.2138 8.40542 30.5936 7.77829C31.9735 7.15115 33.4779 6.82851 35 6.83333ZM45.5 20.5C50.12 20.5 54.033 23.329 55.454 27.3333H35.546C36.2684 25.3235 37.6162 23.5844 39.401 22.3591C41.1857 21.1339 43.3182 20.4839 45.5 20.5ZM10.5 34.1667H59.5C61.481 34.1667 63 35.6495 63 37.5833C63 39.5172 61.481 41 59.5 41H23.1875L26.796 47.8333H50.3125L36.8585 73.8854L36.75 73.9913V74.1007C36.5991 74.4275 36.3523 74.7032 36.0408 74.893C35.7292 75.0828 35.367 75.178 35 75.1667C34.6326 75.1777 34.2701 75.082 33.9585 74.8916C33.6469 74.7012 33.4003 74.4247 33.25 74.0973V73.9948L33.1415 73.8854L17.171 42.9202L16.1875 41H10.5C8.519 41 7 39.5172 7 37.5833C7 35.6495 8.519 34.1667 10.5 34.1667Z" fill="#E09100"/>
</svg>
