<svg width="65" height="65" viewBox="0 0 65 65" fill="none" xmlns="http://www.w3.org/2000/svg">
<path d="M32.4993 59.5834C17.5412 59.5834 5.41602 47.4581 5.41602 32.5C5.41602 17.5419 17.5412 5.41669 32.4993 5.41669C47.4575 5.41669 59.5827 17.5419 59.5827 32.5C59.5827 47.4581 47.4575 59.5834 32.4993 59.5834ZM32.4993 54.1667C38.2457 54.1667 43.7567 51.884 47.82 47.8207C51.8833 43.7574 54.166 38.2464 54.166 32.5C54.166 26.7537 51.8833 21.2427 47.82 17.1794C43.7567 13.1161 38.2457 10.8334 32.4993 10.8334C26.753 10.8334 21.242 13.1161 17.1787 17.1794C13.1154 21.2427 10.8327 26.7537 10.8327 32.5C10.8327 38.2464 13.1154 43.7574 17.1787 47.8207C21.242 51.884 26.753 54.1667 32.4993 54.1667ZM35.2077 32.5H46.041V37.9167H29.791V18.9584H35.2077V32.5Z" fill="black"/>
</svg>
