<svg width="54" height="54" viewBox="0 0 54 54" fill="none" xmlns="http://www.w3.org/2000/svg">
<g clip-path="url(#clip0_178_59)">
<path d="M29.8209 34.6291C29.6488 34.3673 29.4851 34.1003 29.3408 33.8267C28.9255 33.0244 28.0035 30.9743 28.7605 30.1491C29.212 29.6591 30.2745 29.9827 30.678 30.2889C31.6756 31.0483 32.3197 32.5681 33.0677 33.5744C33.6611 34.3696 34.1479 35.2708 34.6802 36.1136C35.5365 37.4574 36.5366 38.7865 37.2762 40.2016C37.2754 40.205 41.8167 48.8913 42.9381 51.0327C43.0797 51.3021 42.9882 51.6311 42.7356 51.7944C42.4796 51.957 42.1437 51.8964 41.9594 51.6572L34.5572 41.9252C33.3872 40.0827 32.2145 38.236 31.041 36.3927C30.6652 35.8009 30.2146 35.2213 29.8209 34.6291Z" fill="#82AEC0"/>
<path d="M30.6428 30.2702C30.2831 30.4456 29.9221 30.6424 29.5662 30.8655C29.1968 31.1001 28.8484 31.3537 28.5267 31.6169C28.6758 32.4499 29.0936 33.3536 29.341 33.8267C29.4819 34.0995 29.6456 34.3665 29.8211 34.6291C30.2183 35.222 30.6662 35.7975 31.0412 36.3927C31.3957 36.9509 31.7528 37.5133 32.1108 38.0723C32.1108 38.0723 32.7992 38.3124 33.7855 37.6861C34.7718 37.0597 34.8491 36.3746 34.8491 36.3746C34.7932 36.2864 34.7364 36.2017 34.6804 36.1136C34.1474 35.2742 33.6613 34.3696 33.068 33.5743C32.32 32.5681 31.6751 31.0517 30.6783 30.2889C30.6687 30.2832 30.6523 30.2759 30.6428 30.2702Z" fill="#2F7889"/>
<path d="M31.1207 36.1655C28.9833 37.4139 26.739 38.4474 24.4874 39.1911C23.5384 39.5052 21.7287 39.7857 20.0819 39.627C18.2052 39.4494 16.8455 37.7303 17.0898 35.8613C17.3883 33.5721 18.2396 30.1131 20.6657 28.0071L14.3623 18.081L24.285 11.7768L30.5849 21.7022C33.5193 20.4012 37.0085 21.1008 39.2081 21.8007C41.0268 22.3832 41.9893 24.3811 41.3233 26.1704C40.7163 27.7928 39.6093 29.3792 38.8887 30.1224C36.6695 32.4151 33.9918 34.4866 31.1207 36.1655Z" fill="#F44336"/>
<path d="M21.4924 29.7082L14.3586 18.0803C14.3586 18.0803 17.4143 16.6875 19.2835 15.527C21.1493 14.3658 24.2855 11.7735 24.2855 11.7735L31.4703 23.0922C31.4703 23.0922 31.0247 26.5733 27.9188 28.5456C24.2975 30.8423 21.4924 29.7082 21.4924 29.7082Z" fill="#F44336"/>
<path d="M24.3178 25.5877C27.4703 25.8591 29.4379 25.1132 30.0885 24.6353C31.1291 23.8626 31.0378 22.4158 30.5881 21.703L24.2848 11.7769C24.2848 11.7769 21.152 14.37 19.2828 15.5305C17.4136 16.691 14.3587 18.0803 14.3587 18.0803L17.0573 22.5154C17.5317 23.2949 18.2415 23.9072 19.0892 24.2405C20.2126 24.6785 21.6773 25.3621 24.3178 25.5877Z" fill="#C62828"/>
<path d="M7.93467 17.2802L10.7305 21.683C11.1054 22.4727 11.7665 22.6418 11.7665 22.6418C13.7493 23.4735 18.0117 22.3069 22.2542 19.6157C26.4974 16.9211 29.3625 13.5586 29.453 11.4103C29.453 11.4103 29.6201 10.8713 29.1136 10.2035L26.2298 5.66227L7.93467 17.2802Z" fill="#F44336"/>
<path d="M26.2299 5.6623C27.5696 7.50308 24.3465 11.7438 19.2932 14.9528C14.2399 18.1618 9.15548 19.2025 7.93478 17.2803C6.71408 15.358 9.8536 11.2499 14.8715 7.9898C19.7215 4.83628 24.86 3.77879 26.2299 5.6623Z" fill="#F44336"/>
<path d="M21.6942 29.5478C20.367 29.2804 18.1971 31.5625 19.1817 33.4933C20.0137 35.1234 22.5637 35.1091 23.9936 34.6898C25.5777 34.2258 27.1316 33.4127 28.1616 32.1225C29.1959 30.8297 29.2918 28.5601 27.7032 29.0124C25.5954 29.6118 24.5455 30.1194 21.6942 29.5478ZM18.5264 14.7563C26.438 9.63503 25.7382 6.96091 25.4767 6.40545C25.2945 6.01176 24.8768 5.75282 24.4502 5.61438C23.3287 5.24877 21.1144 5.55058 20.0041 5.89349C17.114 6.78647 15.2738 7.849 11.243 11.2862C9.45966 12.8045 8.05973 15.3161 8.65623 16.4038C9.35742 17.6842 12.6741 18.5434 18.5264 14.7563Z" fill="#FF7555"/>
</g>
<defs>
<clipPath id="clip0_178_59">
<rect width="45" height="45" fill="white" transform="translate(0 43.9192) rotate(-77.4168)"/>
</clipPath>
</defs>
</svg>
